<mxfile host="app.diagrams.net" modified="2023-11-13T03:16:20.704Z" agent="Mozilla/5.0 (X11; Linux x86_64) AppleWebKit/537.36 (KHTML, like Gecko) Chrome/117.0.0.0 Safari/537.36" etag="PoegbJJnIgpMuyTxiZt7" version="22.1.0" type="github">
  <diagram name="Page-1" id="huqNBi7Q3y6rM0tv229O">
    <mxGraphModel dx="1221" dy="649" grid="1" gridSize="10" guides="1" tooltips="1" connect="1" arrows="1" fold="1" page="1" pageScale="1" pageWidth="850" pageHeight="1100" math="0" shadow="0">
      <root>
        <mxCell id="0" />
        <mxCell id="1" parent="0" />
        <mxCell id="Qm-0lW53Z0TX6Xis_3Z1-21" value="" style="rounded=1;whiteSpace=wrap;html=1;" vertex="1" parent="1">
          <mxGeometry x="180" y="30" width="440" height="230" as="geometry" />
        </mxCell>
        <mxCell id="Qm-0lW53Z0TX6Xis_3Z1-8" value="" style="group" vertex="1" connectable="0" parent="1">
          <mxGeometry x="220" y="80" width="160" height="160" as="geometry" />
        </mxCell>
        <mxCell id="Qm-0lW53Z0TX6Xis_3Z1-5" value="" style="rounded=1;whiteSpace=wrap;html=1;" vertex="1" parent="Qm-0lW53Z0TX6Xis_3Z1-8">
          <mxGeometry width="160" height="160" as="geometry" />
        </mxCell>
        <mxCell id="Qm-0lW53Z0TX6Xis_3Z1-1" value="Item" style="ellipse;whiteSpace=wrap;html=1;aspect=fixed;" vertex="1" parent="Qm-0lW53Z0TX6Xis_3Z1-8">
          <mxGeometry x="30" y="50" width="80" height="80" as="geometry" />
        </mxCell>
        <mxCell id="Qm-0lW53Z0TX6Xis_3Z1-2" value="Item" style="ellipse;whiteSpace=wrap;html=1;aspect=fixed;" vertex="1" parent="Qm-0lW53Z0TX6Xis_3Z1-8">
          <mxGeometry x="40" y="60" width="80" height="80" as="geometry" />
        </mxCell>
        <mxCell id="Qm-0lW53Z0TX6Xis_3Z1-3" value="Item" style="ellipse;whiteSpace=wrap;html=1;aspect=fixed;" vertex="1" parent="Qm-0lW53Z0TX6Xis_3Z1-8">
          <mxGeometry x="50" y="70" width="80" height="80" as="geometry" />
        </mxCell>
        <mxCell id="Qm-0lW53Z0TX6Xis_3Z1-6" value="Stack" style="text;html=1;strokeColor=none;fillColor=none;align=center;verticalAlign=middle;whiteSpace=wrap;rounded=0;" vertex="1" parent="Qm-0lW53Z0TX6Xis_3Z1-8">
          <mxGeometry x="10" y="10" width="60" height="30" as="geometry" />
        </mxCell>
        <mxCell id="Qm-0lW53Z0TX6Xis_3Z1-9" value="" style="group" vertex="1" connectable="0" parent="1">
          <mxGeometry x="425" y="80" width="160" height="160" as="geometry" />
        </mxCell>
        <mxCell id="Qm-0lW53Z0TX6Xis_3Z1-10" value="" style="rounded=1;whiteSpace=wrap;html=1;" vertex="1" parent="Qm-0lW53Z0TX6Xis_3Z1-9">
          <mxGeometry width="160" height="160" as="geometry" />
        </mxCell>
        <mxCell id="Qm-0lW53Z0TX6Xis_3Z1-11" value="Item" style="ellipse;whiteSpace=wrap;html=1;aspect=fixed;" vertex="1" parent="Qm-0lW53Z0TX6Xis_3Z1-9">
          <mxGeometry x="30" y="50" width="80" height="80" as="geometry" />
        </mxCell>
        <mxCell id="Qm-0lW53Z0TX6Xis_3Z1-12" value="Item" style="ellipse;whiteSpace=wrap;html=1;aspect=fixed;" vertex="1" parent="Qm-0lW53Z0TX6Xis_3Z1-9">
          <mxGeometry x="40" y="60" width="80" height="80" as="geometry" />
        </mxCell>
        <mxCell id="Qm-0lW53Z0TX6Xis_3Z1-13" value="Item" style="ellipse;whiteSpace=wrap;html=1;aspect=fixed;" vertex="1" parent="Qm-0lW53Z0TX6Xis_3Z1-9">
          <mxGeometry x="50" y="70" width="80" height="80" as="geometry" />
        </mxCell>
        <mxCell id="Qm-0lW53Z0TX6Xis_3Z1-14" value="Stack" style="text;html=1;strokeColor=none;fillColor=none;align=center;verticalAlign=middle;whiteSpace=wrap;rounded=0;" vertex="1" parent="Qm-0lW53Z0TX6Xis_3Z1-9">
          <mxGeometry x="10" y="10" width="60" height="30" as="geometry" />
        </mxCell>
        <mxCell id="Qm-0lW53Z0TX6Xis_3Z1-22" value="Group" style="text;html=1;strokeColor=none;fillColor=none;align=center;verticalAlign=middle;whiteSpace=wrap;rounded=0;" vertex="1" parent="1">
          <mxGeometry x="210" y="40" width="60" height="30" as="geometry" />
        </mxCell>
        <mxCell id="Qm-0lW53Z0TX6Xis_3Z1-23" value="" style="rounded=1;whiteSpace=wrap;html=1;" vertex="1" parent="1">
          <mxGeometry x="180" y="320" width="440" height="230" as="geometry" />
        </mxCell>
        <mxCell id="Qm-0lW53Z0TX6Xis_3Z1-24" value="" style="group" vertex="1" connectable="0" parent="1">
          <mxGeometry x="220" y="370" width="160" height="160" as="geometry" />
        </mxCell>
        <mxCell id="Qm-0lW53Z0TX6Xis_3Z1-25" value="" style="rounded=1;whiteSpace=wrap;html=1;" vertex="1" parent="Qm-0lW53Z0TX6Xis_3Z1-24">
          <mxGeometry width="160" height="160" as="geometry" />
        </mxCell>
        <mxCell id="Qm-0lW53Z0TX6Xis_3Z1-26" value="Item" style="ellipse;whiteSpace=wrap;html=1;aspect=fixed;" vertex="1" parent="Qm-0lW53Z0TX6Xis_3Z1-24">
          <mxGeometry x="30" y="50" width="80" height="80" as="geometry" />
        </mxCell>
        <mxCell id="Qm-0lW53Z0TX6Xis_3Z1-27" value="Item" style="ellipse;whiteSpace=wrap;html=1;aspect=fixed;" vertex="1" parent="Qm-0lW53Z0TX6Xis_3Z1-24">
          <mxGeometry x="40" y="60" width="80" height="80" as="geometry" />
        </mxCell>
        <mxCell id="Qm-0lW53Z0TX6Xis_3Z1-28" value="Item" style="ellipse;whiteSpace=wrap;html=1;aspect=fixed;" vertex="1" parent="Qm-0lW53Z0TX6Xis_3Z1-24">
          <mxGeometry x="50" y="70" width="80" height="80" as="geometry" />
        </mxCell>
        <mxCell id="Qm-0lW53Z0TX6Xis_3Z1-29" value="Stack" style="text;html=1;strokeColor=none;fillColor=none;align=center;verticalAlign=middle;whiteSpace=wrap;rounded=0;" vertex="1" parent="Qm-0lW53Z0TX6Xis_3Z1-24">
          <mxGeometry x="10" y="10" width="60" height="30" as="geometry" />
        </mxCell>
        <mxCell id="Qm-0lW53Z0TX6Xis_3Z1-30" value="" style="group" vertex="1" connectable="0" parent="1">
          <mxGeometry x="425" y="370" width="160" height="160" as="geometry" />
        </mxCell>
        <mxCell id="Qm-0lW53Z0TX6Xis_3Z1-31" value="" style="rounded=1;whiteSpace=wrap;html=1;" vertex="1" parent="Qm-0lW53Z0TX6Xis_3Z1-30">
          <mxGeometry width="160" height="160" as="geometry" />
        </mxCell>
        <mxCell id="Qm-0lW53Z0TX6Xis_3Z1-32" value="Item" style="ellipse;whiteSpace=wrap;html=1;aspect=fixed;" vertex="1" parent="Qm-0lW53Z0TX6Xis_3Z1-30">
          <mxGeometry x="30" y="50" width="80" height="80" as="geometry" />
        </mxCell>
        <mxCell id="Qm-0lW53Z0TX6Xis_3Z1-33" value="Item" style="ellipse;whiteSpace=wrap;html=1;aspect=fixed;" vertex="1" parent="Qm-0lW53Z0TX6Xis_3Z1-30">
          <mxGeometry x="40" y="60" width="80" height="80" as="geometry" />
        </mxCell>
        <mxCell id="Qm-0lW53Z0TX6Xis_3Z1-34" value="Item" style="ellipse;whiteSpace=wrap;html=1;aspect=fixed;" vertex="1" parent="Qm-0lW53Z0TX6Xis_3Z1-30">
          <mxGeometry x="50" y="70" width="80" height="80" as="geometry" />
        </mxCell>
        <mxCell id="Qm-0lW53Z0TX6Xis_3Z1-35" value="Stack" style="text;html=1;strokeColor=none;fillColor=none;align=center;verticalAlign=middle;whiteSpace=wrap;rounded=0;" vertex="1" parent="Qm-0lW53Z0TX6Xis_3Z1-30">
          <mxGeometry x="10" y="10" width="60" height="30" as="geometry" />
        </mxCell>
        <mxCell id="Qm-0lW53Z0TX6Xis_3Z1-36" value="Group" style="text;html=1;strokeColor=none;fillColor=none;align=center;verticalAlign=middle;whiteSpace=wrap;rounded=0;" vertex="1" parent="1">
          <mxGeometry x="210" y="330" width="60" height="30" as="geometry" />
        </mxCell>
        <mxCell id="Qm-0lW53Z0TX6Xis_3Z1-43" value="" style="endArrow=classic;html=1;rounded=0;exitX=1;exitY=0.5;exitDx=0;exitDy=0;entryX=0;entryY=0.5;entryDx=0;entryDy=0;" edge="1" parent="1" source="Qm-0lW53Z0TX6Xis_3Z1-21" target="Qm-0lW53Z0TX6Xis_3Z1-44">
          <mxGeometry width="50" height="50" relative="1" as="geometry">
            <mxPoint x="400" y="280" as="sourcePoint" />
            <mxPoint x="720" y="270" as="targetPoint" />
          </mxGeometry>
        </mxCell>
        <mxCell id="Qm-0lW53Z0TX6Xis_3Z1-44" value="" style="rounded=1;whiteSpace=wrap;html=1;" vertex="1" parent="1">
          <mxGeometry x="860" y="180" width="390" height="190" as="geometry" />
        </mxCell>
        <mxCell id="Qm-0lW53Z0TX6Xis_3Z1-45" value="" style="endArrow=classic;html=1;rounded=0;exitX=1;exitY=0.5;exitDx=0;exitDy=0;entryX=0;entryY=0.5;entryDx=0;entryDy=0;" edge="1" parent="1" source="Qm-0lW53Z0TX6Xis_3Z1-23" target="Qm-0lW53Z0TX6Xis_3Z1-44">
          <mxGeometry width="50" height="50" relative="1" as="geometry">
            <mxPoint x="400" y="280" as="sourcePoint" />
            <mxPoint x="450" y="230" as="targetPoint" />
          </mxGeometry>
        </mxCell>
        <mxCell id="Qm-0lW53Z0TX6Xis_3Z1-46" value="Strategy" style="whiteSpace=wrap;html=1;aspect=fixed;" vertex="1" parent="1">
          <mxGeometry x="910" y="240" width="80" height="80" as="geometry" />
        </mxCell>
        <mxCell id="Qm-0lW53Z0TX6Xis_3Z1-47" value="Strategy" style="whiteSpace=wrap;html=1;aspect=fixed;" vertex="1" parent="1">
          <mxGeometry x="1030" y="240" width="80" height="80" as="geometry" />
        </mxCell>
        <mxCell id="Qm-0lW53Z0TX6Xis_3Z1-48" value="Strategy" style="whiteSpace=wrap;html=1;aspect=fixed;" vertex="1" parent="1">
          <mxGeometry x="1150" y="240" width="80" height="80" as="geometry" />
        </mxCell>
        <mxCell id="Qm-0lW53Z0TX6Xis_3Z1-49" value="Alert System" style="text;html=1;strokeColor=none;fillColor=none;align=center;verticalAlign=middle;whiteSpace=wrap;rounded=0;" vertex="1" parent="1">
          <mxGeometry x="900" y="190" width="60" height="30" as="geometry" />
        </mxCell>
        <mxCell id="Qm-0lW53Z0TX6Xis_3Z1-63" value="" style="endArrow=classic;html=1;rounded=0;exitX=0.5;exitY=1;exitDx=0;exitDy=0;entryX=0.5;entryY=0;entryDx=0;entryDy=0;" edge="1" parent="1" source="Qm-0lW53Z0TX6Xis_3Z1-34" target="Qm-0lW53Z0TX6Xis_3Z1-64">
          <mxGeometry width="50" height="50" relative="1" as="geometry">
            <mxPoint x="640" y="440" as="sourcePoint" />
            <mxPoint x="515" y="640" as="targetPoint" />
          </mxGeometry>
        </mxCell>
        <mxCell id="Qm-0lW53Z0TX6Xis_3Z1-64" value="Single Alert" style="rounded=1;whiteSpace=wrap;html=1;" vertex="1" parent="1">
          <mxGeometry x="455" y="600" width="120" height="60" as="geometry" />
        </mxCell>
      </root>
    </mxGraphModel>
  </diagram>
</mxfile>
